<svg width="18" height="21" viewBox="0 0 18 21" fill="none" xmlns="http://www.w3.org/2000/svg">
<path d="M13.0927 12.5384C13.07 12.4715 13.0283 12.412 12.9723 12.3667C12.9162 12.3214 12.8481 12.292 12.7755 12.282L10.3402 11.9422L9.25092 9.82363C9.21853 9.7605 9.16837 9.70733 9.10613 9.67016C9.04389 9.63298 8.97205 9.61328 8.89875 9.61328C8.82544 9.61328 8.7536 9.63298 8.69136 9.67016C8.62912 9.70733 8.57897 9.7605 8.54658 9.82363L7.4573 11.9422L5.02175 12.282C4.94923 12.2921 4.88111 12.3215 4.82508 12.3668C4.76906 12.4122 4.72737 12.4716 4.70474 12.5386C4.68211 12.6055 4.67943 12.6771 4.69702 12.7454C4.71461 12.8137 4.75175 12.8759 4.80426 12.925L6.56645 14.5742L6.15053 16.9029C6.13815 16.9723 6.14628 17.0437 6.17401 17.1089C6.20174 17.1741 6.24795 17.2306 6.30741 17.2718C6.36686 17.3131 6.43718 17.3376 6.51038 17.3424C6.58358 17.3473 6.65673 17.3324 6.72154 17.2993L8.89875 16.2004L11.076 17.2993C11.1408 17.3322 11.2139 17.3469 11.287 17.3418C11.3602 17.3368 11.4303 17.3122 11.4896 17.2709C11.549 17.2295 11.595 17.173 11.6226 17.1079C11.6502 17.0427 11.6583 16.9714 11.6458 16.902L11.231 14.5742L12.9932 12.9252C13.0458 12.8761 13.0829 12.8138 13.1005 12.7454C13.1181 12.6771 13.1154 12.6054 13.0927 12.5384ZM10.5339 14.1726C10.4884 14.2153 10.4544 14.268 10.4349 14.3262C10.4153 14.3843 10.4108 14.4461 10.4217 14.5063L10.7379 16.2773L9.08145 15.4413C9.02506 15.4127 8.96227 15.3978 8.89852 15.3978C8.83477 15.3978 8.77198 15.4127 8.71559 15.4413L7.05912 16.2773L7.37538 14.5063C7.3862 14.4461 7.38164 14.3843 7.36209 14.3262C7.34254 14.2681 7.30859 14.2153 7.26315 14.1726L5.92294 12.9185L7.77513 12.6599C7.83814 12.6511 7.89797 12.6277 7.94949 12.5918C8.00102 12.5559 8.0427 12.5085 8.07096 12.4537L8.89875 10.8424L9.72698 12.4537C9.75522 12.5085 9.79689 12.5559 9.84842 12.5918C9.89995 12.6278 9.9598 12.6511 10.0228 12.6599L11.875 12.9185L10.5339 14.1726Z" fill="#7C7C7C" stroke="#7C7C7C" stroke-width="0.1"/>
<path d="M17.0968 0.489378C17.0618 0.434145 17.0125 0.388499 16.9538 0.356836C16.895 0.325173 16.8288 0.308559 16.7614 0.308594H10.9728C10.9006 0.308558 10.8299 0.327628 10.7683 0.363706C10.7067 0.399785 10.6567 0.451472 10.6237 0.51308L8.99982 3.5403L7.37612 0.513296C7.34309 0.451702 7.29303 0.400033 7.23142 0.36396C7.16981 0.327888 7.09904 0.308806 7.02687 0.308809H1.2382C1.17091 0.308821 1.10476 0.325437 1.04608 0.357063C0.987407 0.388689 0.938185 0.434262 0.903141 0.489409C0.868097 0.544556 0.848408 0.607425 0.845962 0.671981C0.843517 0.736537 0.858398 0.800612 0.889177 0.858057L4.61736 7.80758C3.37512 8.6716 2.44812 9.88948 1.96807 11.2882C1.48803 12.6869 1.47936 14.1952 1.9433 15.5989C2.40724 17.0026 3.32018 18.2302 4.55242 19.1073C5.78465 19.9845 7.27349 20.4665 8.80738 20.4849C10.3413 20.5033 11.8422 20.0572 13.0969 19.2099C14.3516 18.3626 15.2962 17.1573 15.7965 15.7651C16.2969 14.373 16.3275 12.8649 15.884 11.4552C15.4405 10.0454 14.5455 8.80565 13.3262 7.91209L17.1107 0.858057C17.1415 0.800606 17.1563 0.73653 17.1539 0.671972C17.1515 0.607414 17.1318 0.54454 17.0968 0.489378ZM11.2125 1.06276H13.2238L10.255 6.59618C9.6099 6.47908 8.95133 6.44602 8.29706 6.49792L11.2125 1.06276ZM6.78738 1.06276L8.5581 4.36385L7.55322 6.23849L4.77762 1.06276H6.78738ZM1.88239 1.06276H3.89349L6.93485 6.73214C6.35672 6.88685 5.80084 7.10985 5.27995 7.39602L1.88239 1.06276ZM15.4102 13.4785C15.4102 14.7148 15.0283 15.9234 14.3129 16.9513C13.5974 17.9793 12.5804 18.7805 11.3906 19.2536C10.2008 19.7267 8.8916 19.8505 7.62851 19.6093C6.36542 19.3681 5.20519 18.7728 4.29456 17.8986C3.38392 17.0244 2.76377 15.9105 2.51252 14.698C2.26128 13.4854 2.39023 12.2286 2.88306 11.0863C3.37589 9.94413 4.21048 8.96786 5.28127 8.281C6.35207 7.59413 7.61098 7.22752 8.89882 7.22752C10.6252 7.22941 12.2802 7.88859 13.5009 9.06046C14.7216 10.2323 15.4083 11.8212 15.4102 13.4785ZM12.6735 7.48308C12.1616 7.18422 11.6126 6.94829 11.0394 6.78084L14.1077 1.06276H16.1175L12.6735 7.48308Z" fill="#7C7C7C" stroke="#7C7C7C" stroke-width="0.1"/>
</svg>
