<svg width="26" height="22" viewBox="0 0 26 22" fill="none" xmlns="http://www.w3.org/2000/svg">
<path d="M6.73842 18.4675C8.44264 20.1036 10.6851 21.1217 13.0837 21.3484C15.4822 21.575 17.8884 20.9962 19.8922 19.7106C21.8961 18.4249 23.3735 16.512 24.0727 14.2978C24.772 12.0836 24.6498 9.7051 23.727 7.56767C22.8042 5.43024 21.1379 3.66615 19.012 2.57601C16.8862 1.48587 14.4323 1.13716 12.0686 1.58928C9.70496 2.04141 7.57773 3.2664 6.04946 5.0555C4.52119 6.84461 3.68645 9.0871 3.6875 11.4008V13.6186" stroke="#7C7C7C" stroke-linecap="round" stroke-linejoin="round"/>
<path d="M1.37305 11.3956L3.68786 13.6178L6.00267 11.3956M12.9471 6.95117V12.5067H18.7341" stroke="#7C7C7C" stroke-linecap="round" stroke-linejoin="round"/>
</svg>
